<?xml version="1.0"?>
<svg xmlns="http://www.w3.org/2000/svg" viewBox="0 0 32 32">
    <path style="text-indent:0;text-align:start;line-height:normal;text-transform:none;block-progression:tb;-inkscape-font-specification:Sans" d="M 16 2.9375 L 15.65625 3.0625 L 4.65625 7.0625 L 4 7.3125 L 4 8 L 4 22 L 4 22.59375 L 4.53125 22.875 L 15.53125 28.875 L 16 29.125 L 16.46875 28.875 L 27.46875 22.875 L 28 22.59375 L 28 22 L 28 8 L 28 7.3125 L 27.34375 7.0625 L 16.34375 3.0625 L 16 2.9375 z M 16 5.0625 L 24.375 8.09375 L 16 11.90625 L 7.625 8.09375 L 16 5.0625 z M 16 7 C 14.895431 7 14 7.4477153 14 8 C 14 8.5522847 14.895431 9 16 9 C 17.104569 9 18 8.5522847 18 8 C 18 7.4477153 17.104569 7 16 7 z M 6 9.53125 L 15 13.625 L 15 26.3125 L 6 21.40625 L 6 9.53125 z M 26 9.53125 L 26 21.40625 L 17 26.3125 L 17 13.625 L 26 9.53125 z M 12.65625 14 C 12.28525 14 12 14.356 12 14.875 C 12 15.542 12.356 16.23525 12.875 16.53125 C 13.023 16.60525 13.19575 16.59375 13.34375 16.59375 C 13.56675 16.59375 13.69575 16.523 13.84375 16.375 C 13.91775 16.227 14 16.01475 14 15.71875 C 14 15.05175 13.55025 14.3585 13.03125 14.0625 C 12.88325 13.9885 12.80425 14 12.65625 14 z M 20.03125 15 C 19.95525 15.010875 19.86875 15.05025 19.78125 15.09375 C 19.17325 15.35475 18.65625 16.217 18.65625 17 C 18.65625 17.261 18.6385 17.5135 18.8125 17.6875 C 18.9865 17.8615 19.1765 17.96875 19.4375 17.96875 C 19.6115 17.96875 19.79475 17.962 19.96875 17.875 C 20.57675 17.527 21 16.72725 21 16.03125 C 21 15.42325 20.74075 15 20.21875 15 C 20.17525 15 20.10725 14.989125 20.03125 15 z M 10.125 16.28125 C 9.754 16.28125 9.46875 16.63725 9.46875 17.15625 C 9.46875 17.82325 9.82475 18.48525 10.34375 18.78125 C 10.49175 18.85525 10.63325 18.875 10.78125 18.875 C 11.00425 18.875 11.1645 18.80425 11.3125 18.65625 C 11.3865 18.50825 11.46875 18.26575 11.46875 17.96875 C 11.46875 17.30175 11.019 16.63975 10.5 16.34375 C 10.352 16.26975 10.273 16.28125 10.125 16.28125 z M 23.53125 17.4375 C 23.455125 17.448375 23.36825 17.4565 23.28125 17.5 C 22.67325 17.761 22.15625 18.6545 22.15625 19.4375 C 22.15625 19.6985 22.16975 19.951 22.34375 20.125 C 22.51775 20.299 22.6765 20.375 22.9375 20.375 C 23.1115 20.375 23.29475 20.3995 23.46875 20.3125 C 24.07775 19.9645 24.501 19.16575 24.5 18.46875 C 24.5 17.86075 24.24075 17.4375 23.71875 17.4375 C 23.67525 17.4375 23.607375 17.426625 23.53125 17.4375 z M 7.65625 18.40625 C 7.28525 18.40625 7 18.76225 7 19.28125 C 7 19.94825 7.356 20.6415 7.875 20.9375 C 8.023 21.0115 8.19575 21 8.34375 21 C 8.56675 21 8.69575 20.92925 8.84375 20.78125 C 8.91775 20.63325 9 20.421 9 20.125 C 9 19.458 8.55025 18.76575 8.03125 18.46875 C 7.88325 18.39475 7.80425 18.40625 7.65625 18.40625 z" overflow="visible" font-family="Sans"/>
</svg>
